<svg xmlns="http://www.w3.org/2000/svg" width="307" height="112" viewBox="0 0 307 112" version="1.1"><path d="M 47 20.550 C 39.702 22.837, 32.998 28.658, 29.172 36.031 C 26.168 41.821, 25.855 43.182, 26.192 49 C 26.830 59.985, 32.634 68.581, 43.205 74.194 C 49.020 77.281, 64.317 77.506, 70.776 74.598 C 73.099 73.552, 75 72.525, 75 72.315 C 75 71.761, 70.010 61.998, 69.733 62.011 C 69.605 62.017, 67.254 62.703, 64.508 63.536 C 52.574 67.156, 41.297 60.539, 40.286 49.324 C 39.916 45.217, 40.310 43.785, 42.940 39.693 C 47.001 33.372, 51.145 31.599, 60.319 32.255 C 64.072 32.523, 67.645 33.245, 68.258 33.858 C 69.077 34.677, 70.131 33.585, 72.236 29.736 L 75.099 24.500 73.038 22.830 C 68.535 19.183, 55.112 18.007, 47 20.550 M 112 48 L 112 76 118.500 76 L 125 76 125 65.609 L 125 55.219 131.665 55.119 C 143.287 54.944, 149.935 50.003, 151.334 40.500 C 152.626 31.726, 147.636 23.105, 140.044 20.996 C 138.095 20.454, 130.988 20.009, 124.250 20.006 L 112 20 112 48 M 125 37.368 L 125 45 128.566 45 C 132.228 45, 135.936 43.546, 137.235 41.600 C 137.639 40.995, 137.976 39.048, 137.985 37.273 C 138.003 33.393, 135.051 31.085, 129.038 30.278 L 125 29.737 125 37.368 M 161 41.331 C 152.989 45.076, 149 50.749, 149 58.395 C 149 63.994, 150.371 67.691, 153.814 71.373 C 157.477 75.291, 161.907 77, 168.403 77 C 175.151 77, 178.587 75.757, 182.634 71.855 C 185.675 68.922, 185.810 68.890, 187.134 70.779 C 191.344 76.784, 202.319 78.932, 208.750 75.011 C 211.402 73.394, 212 73.303, 212 74.515 C 212 75.663, 213.360 76, 218 76 L 224 76 224.004 70.250 L 224.007 64.500 225.863 67.543 C 230.424 75.022, 236.613 77.733, 246.741 76.687 C 253.983 75.940, 254.779 75.054, 252.585 70.188 C 250.863 66.369, 250.764 66.316, 246.168 66.742 C 239.201 67.387, 236.228 64.079, 236.964 56.500 C 237.334 52.686, 240.630 50.525, 246.096 50.512 C 250.456 50.502, 251.353 50.152, 252.545 48 C 254.659 44.182, 254.304 43.025, 250.532 41.449 C 241.960 37.867, 230.595 41.974, 225.309 50.564 C 224.298 52.207, 224.109 51.629, 224.059 46.750 L 224 41 218 41 C 213.298 41, 212 41.329, 212 42.520 C 212 43.797, 211.364 43.716, 208.040 42.020 C 205.862 40.909, 202.469 40, 200.500 40 C 196.007 40, 189.826 43.095, 187.247 46.636 L 185.275 49.342 181.657 45.723 C 176.374 40.441, 167.115 38.472, 161 41.331 M 264.525 40.681 C 261.082 41.644, 255.896 45.689, 253.406 49.353 C 250.590 53.497, 250.085 62.348, 252.411 66.800 C 254.305 70.425, 258.866 74.633, 262.315 75.936 C 266.292 77.439, 275.475 77.256, 279.282 75.599 C 283.013 73.974, 288.262 69.233, 287.570 68.113 C 287.310 67.692, 285.274 66.525, 283.046 65.521 C 279.116 63.749, 278.935 63.749, 276.948 65.547 C 273.041 69.083, 262.379 66.477, 263.201 62.187 C 263.480 60.733, 265.212 60.461, 275.762 60.219 L 288 59.938 288 55.920 C 288 50.540, 285.980 46.951, 281.018 43.512 C 276.888 40.650, 269.294 39.346, 264.525 40.681 M 73.022 53.250 C 73.050 68.894, 74.545 72.897, 81.326 75.487 C 87.704 77.922, 100.721 77.330, 104.682 74.425 C 109.861 70.626, 110.997 66.818, 110.998 53.250 L 111 41 105 41 L 99 41 98.985 51.250 C 98.967 64.113, 97.992 66.387, 92.320 66.803 C 86.047 67.263, 85 65.113, 85 51.777 L 85 41 79 41 L 73 41 73.022 53.250 M 165 48.729 C 163.228 49.403, 162.037 51.009, 162.015 52.750 C 161.997 54.236, 173.547 54.542, 174.451 53.080 C 175.185 51.892, 170.225 47.976, 168.115 48.079 C 167.227 48.122, 165.825 48.415, 165 48.729 M 266.223 49.557 C 262.089 52.452, 263.406 54, 270 54 C 276.388 54, 277.623 52.765, 274.429 49.571 C 272.427 47.570, 269.067 47.564, 266.223 49.557 M 198.073 53.635 C 195.181 57.311, 195.404 61.543, 198.646 64.548 C 204.018 69.527, 212 66.168, 212 58.927 C 212 53.700, 209.300 51, 204.073 51 C 201.021 51, 199.683 51.587, 198.073 53.635 M 161.513 60.979 C 160.526 62.576, 162.921 66.020, 165.772 67.103 C 168.859 68.277, 172.755 67.516, 175.272 65.247 C 176.896 63.784, 177.337 63.790, 180.556 65.325 C 182.487 66.246, 184.210 67, 184.385 67 C 184.559 67, 184.209 65.425, 183.606 63.500 L 182.511 60 172.314 60 C 166.706 60, 161.846 60.441, 161.513 60.979" stroke="none" fill="#5449de" fill-rule="evenodd"/></svg>
